<svg version="1.1" xmlns="http://www.w3.org/2000/svg" xmlns:xlink="http://www.w3.org/1999/xlink" width="101.92467" height="64.44157" viewBox="0,0,101.92467,64.44157"><g transform="translate(-139.90374,-61.30495)"><g stroke-miterlimit="10"><path d="M174.81137,120.326c0,2.99367 -2.72101,5.42052 -6.07756,5.42052c-3.35655,0 -6.07756,-2.42685 -6.07756,-5.42052c0,-2.99367 2.72102,-5.42052 6.07756,-5.42052c3.35655,0 6.07756,2.42685 6.07756,5.42052z" fill="#9966ff" stroke="none" stroke-width="0" stroke-linecap="butt"/><path d="M215.71173,83.61423c0,3.49262 -2.83132,6.32395 -6.32394,6.32395c-3.49262,0 -6.32395,-2.83133 -6.32395,-6.32395c0,-3.49262 2.83133,-6.32395 6.32395,-6.32395c3.49262,0 6.32394,2.83133 6.32394,6.32395z" fill="#9966ff" stroke="none" stroke-width="0" stroke-linecap="butt"/><path d="M203.30034,107.9146c0,4.80803 -5.44204,8.70569 -12.15512,8.70569c-6.71309,0 -12.15513,-3.89767 -12.15513,-8.70569c0,-4.80803 5.44204,-8.7057 12.15513,-8.7057c6.71309,0 12.15512,3.89767 12.15512,8.7057z" fill="#7d53d0" stroke="none" stroke-width="0" stroke-linecap="butt"/><path d="M205.52771,72.85531c0,4.80803 -5.44204,8.70569 -12.15512,8.70569c-6.71309,0 -12.15513,-3.89767 -12.15513,-8.70569c0,-4.80803 5.44204,-8.7057 12.15513,-8.7057c6.71309,0 12.15512,3.89767 12.15512,8.7057z" fill="#7d53d0" stroke="none" stroke-width="0" stroke-linecap="butt"/><path d="M198.60334,88.88197c0,15.23036 -13.14035,27.57701 -29.3498,27.57701c-16.20945,0 -29.3498,-12.34665 -29.3498,-27.57701c0,-15.23036 13.14035,-27.57701 29.3498,-27.57701c16.20945,0 29.3498,12.34665 29.3498,27.57701z" fill="#9966ff" stroke="none" stroke-width="NaN" stroke-linecap="butt"/><path d="M168.08632,78.44838l17.51615,10.99418l-17.88884,11.92591" fill="none" stroke="#000000" stroke-width="0.5" stroke-linecap="round"/><path d="M197.90104,82.92059l-13.60297,2.60879" fill="none" stroke="#000000" stroke-width="0.5" stroke-linecap="round"/><path d="M183.5527,101.9275l14.90739,-0.55903" fill="none" stroke="#000000" stroke-width="0.5" stroke-linecap="round"/><path d="" fill="none" stroke="#000000" stroke-width="0.5" stroke-linecap="round"/><path d="" fill="none" stroke="#000000" stroke-width="0.5" stroke-linecap="round"/><path d="M205.42803,94.84648v-8.94443h36.15038v8.94443z" fill="#000000" stroke="#000000" stroke-width="0.5" stroke-linecap="butt"/></g></g></svg>