<svg version="1.1" xmlns="http://www.w3.org/2000/svg" xmlns:xlink="http://www.w3.org/1999/xlink" width="58.80635" height="55.15402" viewBox="0,0,58.80635,55.15402"><g transform="translate(-170.6502,-62.42299)"><g stroke-miterlimit="10"><path d="M229.3498,90c0,15.23036 -13.14035,27.57701 -29.3498,27.57701c-16.20945,0 -29.3498,-12.34665 -29.3498,-27.57701c0,-15.23036 13.14035,-27.57701 29.3498,-27.57701c16.20945,0 29.3498,12.34665 29.3498,27.57701z" fill="#387f33" stroke="none" stroke-width="NaN" stroke-linecap="butt"/><path d="M198.83278,79.56641l17.51615,10.99418l-17.88884,11.92591" fill="none" stroke="#000000" stroke-width="0.5" stroke-linecap="round"/><path d="M228.6475,84.03862l-13.60297,2.60879" fill="none" stroke="#000000" stroke-width="0.5" stroke-linecap="round"/><path d="M214.29916,103.04553l14.90739,-0.55903" fill="none" stroke="#000000" stroke-width="0.5" stroke-linecap="round"/><path d="M187.58567,82.02834c0,1.68185 -1.15683,3.04526 -2.58386,3.04526c-1.42703,0 -2.58386,-1.36341 -2.58386,-3.04526c0,-1.68185 1.15683,-3.04526 2.58386,-3.04526c1.42703,0 2.58386,1.36341 2.58386,3.04526z" fill="#000000" stroke="none" stroke-width="0" stroke-linecap="butt"/><path d="M205.67268,72.19138c0,1.68185 -1.40473,3.04526 -3.13755,3.04526c-1.73282,0 -3.13755,-1.36341 -3.13755,-3.04526c0,-1.68185 1.40473,-3.04526 3.13755,-3.04526c1.73282,0 3.13755,1.36341 3.13755,3.04526z" fill="#000000" stroke="none" stroke-width="0" stroke-linecap="butt"/></g></g></svg>